<svg xmlns="http://www.w3.org/2000/svg" viewBox="0 0 64 64">
  <defs>
    <linearGradient id="bg" x1="0" y1="0" x2="1" y2="1">
      <stop offset="0%" stop-color="#0f172a" />
      <stop offset="100%" stop-color="#1e293b" />
    </linearGradient>
    <linearGradient id="skin" x1="0" y1="0" x2="0" y2="1">
      <stop offset="0%" stop-color="#84cc16" />
      <stop offset="100%" stop-color="#4d7c0f" />
    </linearGradient>
    <linearGradient id="ear" x1="0" y1="0" x2="1" y2="1">
      <stop offset="0%" stop-color="#a3e635" />
      <stop offset="100%" stop-color="#65a30d" />
    </linearGradient>
  </defs>

  <rect x="2" y="2" width="60" height="60" rx="14" fill="url(#bg)" />

  <path d="M18 30l-8-5 6-8 8 3z" fill="url(#ear)" />
  <path d="M46 30l8-5-6-8-8 3z" fill="url(#ear)" />

  <circle cx="32" cy="34" r="17" fill="url(#skin)" />

  <ellipse cx="25" cy="32" rx="4.5" ry="4" fill="#111827" />
  <ellipse cx="39" cy="32" rx="4.5" ry="4" fill="#111827" />
  <circle cx="26.2" cy="31" r="0.9" fill="#f8fafc" />
  <circle cx="40.2" cy="31" r="0.9" fill="#f8fafc" />

  <path d="M23 42c3 3 15 3 18 0" stroke="#1f2937" stroke-width="2.4" stroke-linecap="round" fill="none" />

  <polygon points="28,41 31,48 34,41" fill="#f8fafc" />

  <path d="M24 24c2-3 5-5 8-5s6 2 8 5" stroke="#365314" stroke-width="2.6" stroke-linecap="round" fill="none" />
</svg>
